<svg class="logo" xmlns="http://www.w3.org/2000/svg"
     viewBox="0 0 1024.000000 1024.000000" preserveAspectRatio="xMidYMid meet">
    <g transform="translate(0.000000,1024.000000) scale(0.100000,-0.100000)"
       fill="#fff" stroke="none">
        <!-- Primary Shape -->
        <path d="M4974 7708 c-18 -18 -43 -56 -58 -85 l-25 -51 -63 33 c-94 49 -116
                 51 -164 17 -51 -37 -125 -135 -164 -216 -42 -90 -60 -175 -60 -296 
                 0 -156 26 -247 102 -357 l28 -42 -58 -68 c-97 -113 -302 -304 -403 
                 -376 -118 -84 -298 -174 -549 -273 -374 -147 -578 -267 -777 -457 
                 -359 -344 -534 -751 -533 -1246 1 -390 143 -791 399 -1126 88 -116 
                 248 -269 441 -424 l195 -156 120 -7 c278 -16 1409 -29 1914 -22 
                 l534 7 -6 279 c-7 319 1 438 44 652 34 167 83 322 159 506 29 69 
                 63 152 77 185 13 33 36 85 50 115 14 30 39 91 55 135 89 239 132 
                 357 153 420 63 192 153 357 283 521 l24 31 281 2 c239 1 297 5 382 
                 22 123 25 274 96 357 166 115 98 238 291 275 433 23 86 23 269 -1 
                 365 -76 310 -340 531 -821 686 -462 150 -942 231 -1463 248 l-203 
                 6 -27 35 c-132 170 -344 347 -437 365 -25 5 -35 1 -61 -27z 
                 
                 m-141 -374 c40 -20 120 -87 167 -138 34 -38 100 -130 100 -140 
                 0 -16 135 -226 165 -258 19 -21 37 -38 39 -38 5 0 -5 101 -20 190 
                 -8 47 -14 88 -14 93 0 19 538 0 815 -29 502 -52 1039 -191 1335 
                 -345 218 -113 320 -262 320 -468 0 -146 -42 -257 -131 -350 -134 
                 -138 -275 -176 -613 -164 -154 5 -463 -9 -500 -23 -30 -12 -216 
                 -333 -308 -535 -36 -79 -99 -234 -138 -344 -66 -182 -186 -475 
                 -278 -680 -19 -44 -64 -150 -99 -235 l-63 -155 0 91 c0 226 63 
                 648 141 943 23 88 111 359 133 413 28 66 18 72 -28 16 -177 -218 
                 -358 -600 -440 -929 -78 -315 -85 -674 -20 -1028 22 -122 70 -317 
                 89 -363 7 -17 -6 -18 -194 -18 l-201 0 -6 27 c-55 246 -157 585 
                 -229 764 -277 681 -769 1138 -1398 1300 -141 36 -255 49 -447 49 
                 l-185 1 55 50 c138 128 370 270 652 400 585 272 757 372 988 579 
                 108 97 265 269 343 377 60 83 180 240 198 260 l19 21 -37 12 c-56 
                 18 -132 64 -179 107 -144 135 -188 338 -112 516 22 51 33 55 81 31z 

                 m-1688 -3024 c337 -29 636 -94 940 -206 185 -68 216 -80 229 -95 
                 25 -27 138 -200 134 -205 -3 -2 -58 19 -124 47 -371 160 -1029 389 
                 -1274 444 -41 9 -79 18 -85 20 -21 7 65 4 180 -5z 

                 m126 -390 c344 -95 697 -224 1044 -380 88 -40 189 -85 225 -100 
                 l65 -28 37 -89 c20 -48 35 -89 34 -90 -12 -12 -555 216 -848 356 
                 -193 92 -739 385 -687 368 9 -3 68 -20 130 -37z 

                 m-11 -393 c138 -79 725 -337 1418 -622 50 -21 92 -42 92 -46 0 -5 
                 -71 -9 -159 -9 -186 0 -274 18 -461 95 -316 129 -606 309 -890 553 
                 -91 78 -103 90 -70 70 14 -8 45 -26 70 -41z" stroke="white"/>
    </g>
</svg>